<svg width="20" height="22" viewBox="0 0 20 22" fill="none" xmlns="http://www.w3.org/2000/svg">
<path d="M17.1528 8.8706L9.88135 3.21435L2.61084 8.8706V18.4907C2.61087 18.7129 2.69883 18.9264 2.85596 19.0835C3.01309 19.2406 3.22652 19.3286 3.44873 19.3286H16.3149C16.5371 19.3286 16.7506 19.2406 16.9077 19.0835C17.0648 18.9264 17.1528 18.7129 17.1528 18.4907V8.8706ZM19.1528 18.4907C19.1528 19.2433 18.854 19.9654 18.3218 20.4975C17.7896 21.0297 17.0676 21.3286 16.3149 21.3286H3.44873C2.69608 21.3286 1.9741 21.0298 1.44189 20.4975C0.909692 19.9653 0.610866 19.2434 0.61084 18.4907V8.38134C0.610945 8.07295 0.753191 7.78166 0.996582 7.59228L9.26807 1.15966L9.40967 1.06689C9.75326 0.882739 10.1797 0.913971 10.4956 1.15966L18.7671 7.59228C19.0104 7.78167 19.1527 8.07297 19.1528 8.38134V18.4907Z" fill="black"/>
<path d="M11.6385 20.3291V12.1387H8.12482V20.3291C8.12455 20.8812 7.67694 21.3291 7.12482 21.3291C6.57269 21.3291 6.12508 20.8812 6.12482 20.3291V11.1387L6.1297 11.0361C6.18103 10.532 6.60714 10.1387 7.12482 10.1387H12.6385C13.1908 10.1387 13.6385 10.5864 13.6385 11.1387V20.3291C13.6382 20.8812 13.1906 21.3291 12.6385 21.3291C12.0865 21.3289 11.6388 20.8811 11.6385 20.3291Z" fill="black"/>
</svg>
