<svg width="25" height="25" viewBox="0 0 25 25" fill="none" xmlns="http://www.w3.org/2000/svg">
<path d="M22.8155 12.5647C22.8155 7.0447 18.3355 2.5647 12.8155 2.5647C7.29549 2.5647 2.81549 7.0447 2.81549 12.5647C2.81549 18.0847 7.29549 22.5647 12.8155 22.5647C18.3355 22.5647 22.8155 18.0847 22.8155 12.5647ZM12.8155 13.4651C14.8055 13.4651 18.7855 14.5552 18.8155 16.5452C17.5255 18.485 15.3154 19.7649 12.8155 19.7649V17.7649C14.174 17.7649 15.415 17.2402 16.3448 16.3801C16.1894 16.2912 16.0019 16.1967 15.7794 16.1038C14.7677 15.6811 13.5368 15.4651 12.8155 15.4651C12.0886 15.4651 10.8581 15.6816 9.84869 16.1038C9.6264 16.1967 9.43923 16.2912 9.28424 16.3801C10.2141 17.2408 11.4564 17.7649 12.8155 17.7649V19.7649L12.3506 19.7502C10.0432 19.6026 8.02496 18.3638 6.81549 16.5452C6.84549 14.5552 10.8155 13.4651 12.8155 13.4651ZM13.8155 8.5647C13.8155 8.00927 13.3709 7.5647 12.8155 7.5647C12.2601 7.5647 11.8155 8.00927 11.8155 8.5647C11.8155 9.12013 12.2601 9.5647 12.8155 9.5647C13.3709 9.5647 13.8155 9.12013 13.8155 8.5647ZM24.8155 12.5647C24.8155 19.1893 19.4401 24.5647 12.8155 24.5647C6.19092 24.5647 0.815491 19.1893 0.815491 12.5647C0.815491 5.94013 6.19092 0.564697 12.8155 0.564697C19.4401 0.564697 24.8155 5.94013 24.8155 12.5647ZM15.8155 8.5647C15.8155 10.2247 14.4755 11.5647 12.8155 11.5647C11.1555 11.5647 9.81549 10.2247 9.81549 8.5647C9.81549 6.9047 11.1555 5.5647 12.8155 5.5647C14.4755 5.5647 15.8155 6.9047 15.8155 8.5647Z" fill="black"/>
</svg>
