<svg width="20" height="21" viewBox="0 0 20 21" fill="none" xmlns="http://www.w3.org/2000/svg">
<g clip-path="url(#clip0_2531_155)">
<path d="M13.333 20.1251H4.58295C3.56294 20.1264 2.57176 19.7698 1.76688 19.1119C0.961994 18.454 0.389587 17.5325 0.140598 16.4939C-0.108391 15.4553 -0.0196798 14.3591 0.392637 13.3795C0.804955 12.3999 1.51723 11.5931 2.41629 11.0872C1.92291 10.0958 1.66557 8.99365 1.66629 7.87506C1.67124 6.15857 2.27667 4.50382 3.3675 3.22535C4.45834 1.94687 5.95852 1.13381 7.5829 0.940697C9.20729 0.747586 10.8426 1.18789 12.1781 2.17792C13.5135 3.16795 14.456 4.63868 14.8263 6.31056C16.4156 6.7025 17.8128 7.69317 18.7528 9.09474C19.6928 10.4963 20.1103 12.2113 19.9261 13.9146C19.742 15.6179 18.9691 17.191 17.7538 18.3357C16.5386 19.4804 14.9655 20.1171 13.333 20.1251ZM8.33296 2.62506C7.00728 2.62645 5.73628 3.18002 4.79888 4.16428C3.86149 5.14855 3.33428 6.4831 3.33296 7.87506C3.33163 8.99849 3.67725 10.0921 4.31796 10.9918L5.05296 12.0357L3.85629 12.3603C3.16859 12.5442 2.56862 12.9857 2.16932 13.6017C1.77001 14.2177 1.59891 14.9657 1.68822 15.7049C1.77752 16.4441 2.12108 17.1235 2.65422 17.6153C3.18736 18.1071 3.87331 18.3773 4.58295 18.3751H13.333C14.5927 18.3622 15.8014 17.8505 16.7173 16.9422C17.6333 16.034 18.1889 14.7962 18.2731 13.4763C18.3574 12.1565 17.964 10.8519 17.1717 9.82347C16.3793 8.79503 15.2465 8.11855 13.9996 7.92931L13.3688 7.84181L13.2855 7.17856C13.1232 5.91941 12.5322 4.76453 11.6218 3.92746C10.7113 3.09039 9.54308 2.62775 8.33296 2.62506Z" fill="black"/>
</g>
<defs>
<clipPath id="clip0_2531_155">
<rect width="20" height="21" fill="white"/>
</clipPath>
</defs>
</svg>
