<svg width="24" height="25" viewBox="0 0 24 25" fill="none" xmlns="http://www.w3.org/2000/svg">
<g clip-path="url(#clip0_2531_68)">
<path d="M11.9998 20.3286C14.1208 20.3262 16.1542 19.4826 17.654 17.9828C19.1538 16.4831 19.9974 14.4496 19.9998 12.3286V8.32861C19.9998 6.20688 19.1569 4.17205 17.6566 2.67176C16.1563 1.17147 14.1215 0.328613 11.9998 0.328613C9.87802 0.328613 7.84319 1.17147 6.3429 2.67176C4.84261 4.17205 3.99976 6.20688 3.99976 8.32861V12.3286C4.00214 14.4496 4.84576 16.4831 6.34553 17.9828C7.84531 19.4826 9.87876 20.3262 11.9998 20.3286ZM11.9998 2.32861C13.4163 2.33124 14.7863 2.83448 15.8678 3.74941C16.9492 4.66434 17.6725 5.93207 17.9098 7.32861H14.9998C14.7345 7.32861 14.4802 7.43397 14.2926 7.62151C14.1051 7.80904 13.9998 8.0634 13.9998 8.32861C13.9998 8.59383 14.1051 8.84818 14.2926 9.03572C14.4802 9.22326 14.7345 9.32861 14.9998 9.32861H17.9998V11.3286H14.9998C14.7345 11.3286 14.4802 11.434 14.2926 11.6215C14.1051 11.809 13.9998 12.0634 13.9998 12.3286C13.9998 12.5938 14.1051 12.8482 14.2926 13.0357C14.4802 13.2233 14.7345 13.3286 14.9998 13.3286H17.9098C17.6747 14.7261 16.9521 15.9951 15.8701 16.9103C14.7881 17.8255 13.4169 18.3277 11.9998 18.3277C10.5826 18.3277 9.21137 17.8255 8.1294 16.9103C7.04744 15.9951 6.32479 14.7261 6.08976 13.3286H8.99976C9.26497 13.3286 9.51933 13.2233 9.70686 13.0357C9.8944 12.8482 9.99976 12.5938 9.99976 12.3286C9.99976 12.0634 9.8944 11.809 9.70686 11.6215C9.51933 11.434 9.26497 11.3286 8.99976 11.3286H5.99976V9.32861H8.99976C9.26497 9.32861 9.51933 9.22326 9.70686 9.03572C9.8944 8.84818 9.99976 8.59383 9.99976 8.32861C9.99976 8.0634 9.8944 7.80904 9.70686 7.62151C9.51933 7.43397 9.26497 7.32861 8.99976 7.32861H6.08976C6.32703 5.93207 7.05028 4.66434 8.13173 3.74941C9.21317 2.83448 10.5832 2.33124 11.9998 2.32861Z" fill="white"/>
<path d="M22.9999 12.3286C22.7347 12.3286 22.4804 12.434 22.2928 12.6215C22.1053 12.809 21.9999 13.0634 21.9999 13.3286C21.9973 15.7147 21.0482 18.0024 19.361 19.6897C17.6737 21.3769 15.3861 22.326 12.9999 22.3286H10.9999C8.61388 22.3257 6.32639 21.3766 4.63919 19.6894C2.952 18.0022 2.00285 15.7147 1.99994 13.3286C1.99994 13.0634 1.89458 12.809 1.70705 12.6215C1.51951 12.434 1.26516 12.3286 0.999939 12.3286C0.734722 12.3286 0.480369 12.434 0.292832 12.6215C0.105296 12.809 -6.10352e-05 13.0634 -6.10352e-05 13.3286C0.00337944 16.2449 1.16341 19.0408 3.22556 21.103C5.28772 23.1651 8.08361 24.3252 10.9999 24.3286H12.9999C15.9163 24.3252 18.7122 23.1651 20.7743 21.103C22.8365 19.0408 23.9965 16.2449 23.9999 13.3286C23.9999 13.0634 23.8946 12.809 23.707 12.6215C23.5195 12.434 23.2652 12.3286 22.9999 12.3286Z" fill="white"/>
</g>
<defs>
<clipPath id="clip0_2531_68">
<rect width="24" height="24" fill="white" transform="translate(-6.10352e-05 0.328613)"/>
</clipPath>
</defs>
</svg>
